<?xml version="1.0" standalone="no"?>
<!DOCTYPE svg PUBLIC "-//W3C//DTD SVG 20010904//EN"
 "http://www.w3.org/TR/2001/REC-SVG-20010904/DTD/svg10.dtd">
<svg version="1.0" xmlns="http://www.w3.org/2000/svg"
 width="80.000000pt" height="80.000000pt" viewBox="0 0 80.000000 80.000000"
 preserveAspectRatio="xMidYMid meet">
<metadata>
Created by potrace 1.11, written by Peter Selinger 2001-2013
</metadata>
<g transform="translate(0.000000,80.000000) scale(0.100000,-0.100000)"
fill="#000000" stroke="none">
<path d="M28 768 c0 -18 -1 -39 -1 -45 1 -7 -3 -11 -7 -8 -16 10 -20 -29 -20
-179 0 -96 4 -156 11 -163 8 -8 8 -13 0 -17 -7 -5 -11 -67 -11 -182 0 -179 4
-195 39 -162 11 11 14 10 18 0 3 -7 22 7 49 37 54 60 73 66 105 33 13 -14 18
-22 10 -17 -11 6 -13 4 -8 -8 3 -9 2 -19 -3 -22 -6 -4 -10 -13 -10 -21 0 -12
45 -14 300 -14 l300 0 0 400 0 400 -385 0 -385 0 -2 -32z"/>
</g>
</svg>
